<svg width="673" height="522" viewBox="0 0 673 522" fill="none" xmlns="http://www.w3.org/2000/svg">
<rect x="65.5" y="120.25" width="75" height="75" fill="black"/>
<rect x="342.75" y="150.5" width="75" height="75" fill="black"/>
<rect x="417.75" y="176" width="75" height="75" fill="black"/>
<rect x="492.75" y="120.25" width="75" height="75" fill="black"/>
<rect x="567.75" y="26" width="75" height="75" fill="black"/>
<rect x="567.75" y="101" width="75" height="75" fill="black"/>
<rect x="215.5" y="300.5" width="75" height="75" fill="black"/>
<rect x="215.5" y="345.25" width="75" height="75" fill="black"/>
<rect x="290.5" y="225.5" width="75" height="75" fill="black"/>
<rect x="290.5" y="300.5" width="75" height="75" fill="black"/>
<rect x="353.5" y="219.5" width="75" height="75" fill="black"/>
<rect x="65.5" y="120.25" width="75" height="75" fill="black"/>
<rect x="290.5" y="345.25" width="75" height="75" fill="black"/>
<rect x="365.5" y="294.5" width="75" height="75" fill="black"/>
<rect x="353.5" y="357" width="75" height="75" fill="black"/>
<rect x="417.75" y="251" width="75" height="75" fill="black"/>
<rect x="410.5" y="300.5" width="75" height="75" fill="black"/>
<rect x="485.5" y="195.25" width="75" height="75" fill="black"/>
<rect x="545" y="157.75" width="75" height="75" fill="black"/>
<rect x="241" y="382.75" width="75" height="75" fill="black"/>
<rect x="316" y="420.25" width="75" height="75" fill="black"/>
<rect x="391" y="420.25" width="75" height="75" fill="black"/>
<rect x="417.75" y="345.25" width="75" height="75" fill="black"/>
<rect x="455.25" y="270.25" width="75" height="75" fill="black"/>
<rect x="530.25" y="232.75" width="75" height="75" fill="black"/>
<rect x="605.25" y="176" width="75" height="75" fill="black"/>
<rect x="605.25" y="101" width="75" height="75" fill="black"/>
<rect x="140.5" y="195.25" width="75" height="75" fill="black"/>
<rect x="140.5" y="270.25" width="75" height="75" fill="black"/>
<rect x="140.5" y="345.25" width="75" height="75" fill="black"/>
<rect x="166" y="420.25" width="75" height="75" fill="black"/>
<rect x="215.5" y="225.5" width="75" height="75" fill="black"/>
<rect x="267.75" y="150.5" width="75" height="75" fill="black"/>
<rect x="290.5" y="75.5" width="75" height="75" fill="black"/>
<rect x="192.75" y="75.5" width="75" height="75" fill="black"/>
<rect x="295" y="190" width="10" height="10" fill="white"/>
<rect x="366" y="158" width="10" height="10" fill="white"/>
<rect x="344" y="180" width="10" height="10" fill="white"/>
<rect x="241" y="113" width="10" height="10" fill="#FF90DA"/>
<rect x="393" y="209" width="10" height="10" fill="white"/>
<rect x="327" y="160" width="10" height="10" fill="white"/>
<rect x="334" y="225" width="10" height="10" fill="white"/>
<rect x="258" y="265" width="10" height="10" fill="white"/>
<rect x="500" y="251" width="10" height="10" fill="white"/>
<rect x="398" y="300" width="10" height="10" fill="white"/>
<rect x="323" y="270" width="10" height="10" fill="white"/>
</svg>
